<?xml version="1.0"?>
<svg width="890" height="1280" xmlns="http://www.w3.org/2000/svg" xmlns:svg="http://www.w3.org/2000/svg" preserveAspectRatio="xMidYMid meet">
 <metadata>Created by potrace 1.15, written by Peter Selinger 2001-2017</metadata>
 <g class="layer">
  <title>Layer 1</title>
  <g fill="#000000" id="svg_1" transform="translate(0 1280) scale(0.1 -0.1)">
   <path d="m1630,12123c-62,-21 -144,-77 -180,-123c-17,-21 -43,-65 -58,-97l-27,-58l-3,-778l-2,-778l-23,7c-12,3 -69,24 -127,46c-134,51 -225,55 -312,15c-145,-66 -215,-201 -189,-361c17,-103 59,-181 155,-288c145,-162 355,-349 467,-415l29,-17l0,-241l0,-241l-52,-26c-29,-14 -110,-68 -179,-120c-138,-104 -252,-177 -403,-258c-153,-82 -206,-149 -206,-260c0,-71 25,-124 83,-177c84,-77 203,-123 321,-123c85,0 236,22 345,50c44,11 82,20 85,20c3,0 6,-29 6,-65c0,-60 -2,-66 -27,-82c-131,-82 -301,-244 -335,-321c-15,-33 -30,-156 -73,-580c-61,-610 -75,-769 -68,-805c7,-37 61,-97 107,-118c72,-33 129,-23 174,29l23,27l-6,-80c-14,-185 -38,-377 -81,-639c-28,-169 -43,-291 -40,-311c8,-43 71,-100 126,-115c57,-15 98,-1 177,61c62,50 67,52 77,34c31,-54 104,-118 175,-153l75,-37l242,-3l241,-4l76,-111c218,-322 470,-562 804,-764c133,-80 354,-194 707,-363c393,-188 603,-342 834,-610c133,-155 367,-694 458,-1055c75,-298 299,-1369 364,-1742c7,-39 16,-76 20,-82c4,-8 481,-10 1628,-9l1623,3l-182,295c-427,694 -637,1051 -876,1495c-155,287 -416,803 -458,905c-110,264 -466,933 -704,1320c-77,125 -159,308 -186,414c-28,111 -31,156 -26,516c1,141 0,271 -4,290c-3,19 -10,226 -14,460c-8,401 -10,429 -31,495c-29,91 -58,145 -125,230c-112,142 -194,341 -242,585c-25,127 -27,156 -31,500c-5,475 11,709 73,1065c45,255 143,609 191,693c60,103 79,212 48,278c-33,69 -104,97 -243,96c-220,-2 -506,-123 -625,-264l-36,-43l0,1225c0,788 -4,1241 -11,1269c-27,117 -116,227 -226,279l-58,27l-1610,2c-1443,2 -1615,1 -1655,-14zm3390,-1959l0,-1325l-34,-137c-104,-413 -185,-943 -216,-1411l-11,-165l-84,-250c-45,-138 -96,-281 -113,-318c-40,-87 -159,-451 -211,-643c-32,-118 -71,-296 -71,-321c0,-2 -620,-3 -1377,-2l-1378,3l-3,2948l-2,2947l1750,0l1750,0l0,-1326z" fill="#7f00ff" id="svg_2" stroke="#0000ff"/>
  </g>
 </g>
</svg>